{
.appVersion = "113";
DisplayStrings = (
OOECEGGOCO,
GODBPREC,
REJQOBP,
ONHTPRFLESCIE,
EKXOTEAOUV,
OVMOTYWOXEL,
EZXVW,
"DÐE"
);
date = "2021-06-21 16:21:12 +0000";
familyName = "Anworr LAB 20210623";
featurePrefixes = (
{
automatic = 1;
code = "languagesystem DFLT dflt;\012";
name = Languagesystems;
}
);
fontMaster = (
{
ascender = 800;
capHeight = 750;
descender = -200;
id = "A004749E-6E0D-4C42-B0DF-5F4E70329EE4";
userData = {
GSCornerRadius = 36;
};
weightValue = 0;
widthValue = 0;
xHeight = 500;
}
);
glyphs = (
{
glyphname = A;
lastChange = "2021-06-22 16:53:29 +0000";
layers = (
{
background = {
paths = (
{
closed = 1;
nodes = (
"525 -15 OFFCURVE",
"630 122 OFFCURVE",
"630 376 CURVE SMOOTH",
"630 629 OFFCURVE",
"525 765 OFFCURVE",
"331 765 CURVE SMOOTH",
"135 765 OFFCURVE",
"30 629 OFFCURVE",
"30 376 CURVE SMOOTH",
"30 122 OFFCURVE",
"135 -15 OFFCURVE",
"331 -15 CURVE SMOOTH"
);
},
{
closed = 1;
nodes = (
"200 41 OFFCURVE",
"130 158 OFFCURVE",
"130 376 CURVE SMOOTH",
"130 592 OFFCURVE",
"200 709 OFFCURVE",
"331 709 CURVE SMOOTH",
"460 709 OFFCURVE",
"530 592 OFFCURVE",
"530 376 CURVE SMOOTH",
"530 158 OFFCURVE",
"460 41 OFFCURVE",
"331 41 CURVE SMOOTH"
);
}
);
};
layerId = "A004749E-6E0D-4C42-B0DF-5F4E70329EE4";
paths = (
{
closed = 1;
nodes = (
"241 0 LINE",
"241 50 LINE",
"199 50 LINE SMOOTH",
"187 50 OFFCURVE",
"177 60 OFFCURVE",
"181 73 CURVE SMOOTH",
"325 596 LINE",
"335 596 LINE",
"479 73 LINE SMOOTH",
"483 60 OFFCURVE",
"473 50 OFFCURVE",
"461 50 CURVE SMOOTH",
"419 50 LINE",
"419 0 LINE",
"630 0 LINE",
"630 50 LINE",
"594 50 LINE SMOOTH",
"579 50 OFFCURVE",
"566 60 OFFCURVE",
"562 74 CURVE SMOOTH",
"376 750 LINE",
"284 750 LINE",
"98 74 LINE SMOOTH",
"94 60 OFFCURVE",
"81 50 OFFCURVE",
"66 50 CURVE SMOOTH",
"30 50 LINE",
"30 0 LINE"
);
},
{
closed = 1;
nodes = (
"220 265 LINE",
"440 265 LINE",
"440 321 LINE",
"220 321 LINE"
);
}
);
width = 660;
}
);
unicode = 0041;
},
{
glyphname = B;
lastChange = "2021-06-22 10:25:32 +0000";
layers = (
{
background = {
paths = (
{
closed = 1;
nodes = (
"510 0 LINE",
"510 146 LINE",
"434 146 LINE",
"434 101 LINE SMOOTH",
"434 76 OFFCURVE",
"421 56 OFFCURVE",
"404 56 CURVE SMOOTH",
"174 56 LINE",
"174 375 LINE",
"290 375 LINE SMOOTH",
"301 375 OFFCURVE",
"310 366 OFFCURVE",
"310 355 CURVE SMOOTH",
"310 335 LINE",
"360 335 LINE",
"360 481 LINE",
"310 481 LINE",
"310 456 LINE SMOOTH",
"310 442 OFFCURVE",
"301 431 OFFCURVE",
"290 431 CURVE SMOOTH",
"174 431 LINE",
"174 694 LINE",
"404 694 LINE SMOOTH",
"421 694 OFFCURVE",
"434 675 OFFCURVE",
"434 652 CURVE SMOOTH",
"434 610 LINE",
"510 610 LINE",
"510 750 LINE",
"30 750 LINE",
"30 700 LINE",
"60 700 LINE SMOOTH",
"77 700 OFFCURVE",
"90 691 OFFCURVE",
"90 680 CURVE SMOOTH",
"90 70 LINE SMOOTH",
"90 59 OFFCURVE",
"77 50 OFFCURVE",
"60 50 CURVE SMOOTH",
"30 50 LINE",
"30 0 LINE"
);
}
);
};
layerId = "A004749E-6E0D-4C42-B0DF-5F4E70329EE4";
paths = (
{
closed = 1;
nodes = (
"174 0 LINE",
"174 750 LINE",
"30 750 LINE",
"30 700 LINE",
"60 700 LINE SMOOTH",
"77 700 OFFCURVE",
"90 691 OFFCURVE",
"90 680 CURVE SMOOTH",
"90 70 LINE SMOOTH",
"90 59 OFFCURVE",
"77 50 OFFCURVE",
"60 50 CURVE SMOOTH",
"30 50 LINE",
"30 0 LINE"
);
},
{
closed = 1;
nodes = (
"276 694 LINE SMOOTH",
"353 694 OFFCURVE",
"400 648 OFFCURVE",
"400 563 CURVE SMOOTH",
"400 477 OFFCURVE",
"353 431 OFFCURVE",
"276 431 CURVE SMOOTH",
"174 431 LINE",
"174 375 LINE",
"281 375 LINE SMOOTH",
"417 375 OFFCURVE",
"490 441 OFFCURVE",
"490 563 CURVE SMOOTH",
"490 685 OFFCURVE",
"417 750 OFFCURVE",
"281 750 CURVE SMOOTH",
"174 750 LINE",
"174 694 LINE"
);
},
{
closed = 1;
nodes = (
"281 375 LINE SMOOTH",
"365 375 OFFCURVE",
"410 319 OFFCURVE",
"410 216 CURVE SMOOTH",
"410 112 OFFCURVE",
"365 56 OFFCURVE",
"281 56 CURVE SMOOTH",
"174 56 LINE",
"174 0 LINE",
"281 0 LINE SMOOTH",
"430 0 OFFCURVE",
"510 76 OFFCURVE",
"510 216 CURVE SMOOTH",
"510 356 OFFCURVE",
"430 431 OFFCURVE",
"281 431 CURVE SMOOTH",
"174 431 LINE",
"174 375 LINE"
);
}
);
width = 540;
}
);
unicode = 0042;
},
{
glyphname = C;
lastChange = "2021-06-21 20:03:56 +0000";
layers = (
{
background = {
paths = (
{
closed = 1;
nodes = (
"525 -15 OFFCURVE",
"630 122 OFFCURVE",
"630 376 CURVE SMOOTH",
"630 629 OFFCURVE",
"525 765 OFFCURVE",
"331 765 CURVE SMOOTH",
"135 765 OFFCURVE",
"30 629 OFFCURVE",
"30 376 CURVE SMOOTH",
"30 122 OFFCURVE",
"135 -15 OFFCURVE",
"331 -15 CURVE SMOOTH"
);
},
{
closed = 1;
nodes = (
"200 41 OFFCURVE",
"130 158 OFFCURVE",
"130 376 CURVE SMOOTH",
"130 592 OFFCURVE",
"200 709 OFFCURVE",
"331 709 CURVE SMOOTH",
"460 709 OFFCURVE",
"530 592 OFFCURVE",
"530 376 CURVE SMOOTH",
"530 158 OFFCURVE",
"460 41 OFFCURVE",
"331 41 CURVE SMOOTH"
);
}
);
};
layerId = "A004749E-6E0D-4C42-B0DF-5F4E70329EE4";
paths = (
{
closed = 1;
nodes = (
"30 122 OFFCURVE",
"141 -15 OFFCURVE",
"337 -15 CURVE SMOOTH",
"417 -15 OFFCURVE",
"481 1 OFFCURVE",
"530 31 CURVE",
"530 146 LINE",
"480 146 LINE",
"470 77 OFFCURVE",
"414 41 OFFCURVE",
"347 41 CURVE SMOOTH",
"216 41 OFFCURVE",
"130 158 OFFCURVE",
"130 376 CURVE SMOOTH",
"130 592 OFFCURVE",
"200 709 OFFCURVE",
"331 709 CURVE SMOOTH",
"397 709 OFFCURVE",
"457 693 OFFCURVE",
"480 610 CURVE",
"530 610 LINE",
"530 740 LINE",
"481 756 OFFCURVE",
"414 765 OFFCURVE",
"331 765 CURVE SMOOTH",
"135 765 OFFCURVE",
"30 629 OFFCURVE",
"30 376 CURVE SMOOTH"
);
}
);
width = 560;
}
);
unicode = 0043;
},
{
glyphname = D;
lastChange = "2021-06-22 10:07:55 +0000";
layers = (
{
background = {
paths = (
{
closed = 1;
nodes = (
"475 -15 OFFCURVE",
"580 122 OFFCURVE",
"580 376 CURVE SMOOTH",
"580 629 OFFCURVE",
"475 765 OFFCURVE",
"281 765 CURVE SMOOTH",
"85 765 OFFCURVE",
"-20 629 OFFCURVE",
"-20 376 CURVE SMOOTH",
"-20 122 OFFCURVE",
"85 -15 OFFCURVE",
"281 -15 CURVE SMOOTH"
);
},
{
closed = 1;
nodes = (
"150 41 OFFCURVE",
"80 158 OFFCURVE",
"80 376 CURVE SMOOTH",
"80 592 OFFCURVE",
"150 709 OFFCURVE",
"281 709 CURVE SMOOTH",
"410 709 OFFCURVE",
"480 592 OFFCURVE",
"480 376 CURVE SMOOTH",
"480 158 OFFCURVE",
"410 41 OFFCURVE",
"281 41 CURVE SMOOTH"
);
}
);
};
layerId = "A004749E-6E0D-4C42-B0DF-5F4E70329EE4";
paths = (
{
closed = 1;
nodes = (
"203 694 OFFCURVE",
"239 694 OFFCURVE",
"281 694 CURVE SMOOTH",
"410 694 OFFCURVE",
"480 592 OFFCURVE",
"480 376 CURVE SMOOTH",
"480 158 OFFCURVE",
"410 56 OFFCURVE",
"281 56 CURVE SMOOTH",
"239 56 OFFCURVE",
"203 56 OFFCURVE",
"174 56 CURVE",
"174 0 LINE",
"206 0 OFFCURVE",
"242 0 OFFCURVE",
"281 0 CURVE SMOOTH",
"460 0 OFFCURVE",
"580 122 OFFCURVE",
"580 376 CURVE SMOOTH",
"580 629 OFFCURVE",
"476 750 OFFCURVE",
"281 750 CURVE SMOOTH",
"242 750 OFFCURVE",
"206 750 OFFCURVE",
"174 750 CURVE",
"174 694 LINE"
);
},
{
closed = 1;
nodes = (
"174 0 LINE",
"174 750 LINE",
"30 750 LINE",
"30 700 LINE",
"60 700 LINE SMOOTH",
"77 700 OFFCURVE",
"90 691 OFFCURVE",
"90 680 CURVE SMOOTH",
"90 70 LINE SMOOTH",
"90 59 OFFCURVE",
"77 50 OFFCURVE",
"60 50 CURVE SMOOTH",
"30 50 LINE",
"30 0 LINE"
);
}
);
width = 610;
}
);
unicode = 0044;
},
{
glyphname = Eth;
lastChange = "2021-06-23 10:27:42 +0000";
layers = (
{
components = (
{
name = D;
}
);
layerId = "A004749E-6E0D-4C42-B0DF-5F4E70329EE4";
paths = (
{
closed = 1;
nodes = (
"30 375 LINE",
"334 375 LINE",
"334 431 LINE",
"30 431 LINE"
);
}
);
width = 610;
}
);
unicode = 00D0;
},
{
glyphname = E;
lastChange = "2021-06-21 19:48:22 +0000";
layers = (
{
background = {
paths = (
{
closed = 1;
nodes = (
"522 -15 OFFCURVE",
"627 122 OFFCURVE",
"627 376 CURVE SMOOTH",
"627 629 OFFCURVE",
"522 765 OFFCURVE",
"328 765 CURVE SMOOTH",
"132 765 OFFCURVE",
"27 629 OFFCURVE",
"27 376 CURVE SMOOTH",
"27 122 OFFCURVE",
"132 -15 OFFCURVE",
"328 -15 CURVE SMOOTH"
);
},
{
closed = 1;
nodes = (
"197 41 OFFCURVE",
"127 158 OFFCURVE",
"127 376 CURVE SMOOTH",
"127 592 OFFCURVE",
"197 709 OFFCURVE",
"328 709 CURVE SMOOTH",
"457 709 OFFCURVE",
"527 592 OFFCURVE",
"527 376 CURVE SMOOTH",
"527 158 OFFCURVE",
"457 41 OFFCURVE",
"328 41 CURVE SMOOTH"
);
}
);
};
layerId = "A004749E-6E0D-4C42-B0DF-5F4E70329EE4";
paths = (
{
closed = 1;
nodes = (
"90 0 LINE",
"174 0 LINE",
"174 750 LINE",
"90 750 LINE"
);
},
{
closed = 1;
nodes = (
"174 0 LINE",
"510 0 LINE",
"510 56 LINE",
"174 56 LINE"
);
},
{
closed = 1;
nodes = (
"174 694 LINE",
"510 694 LINE",
"510 750 LINE",
"174 750 LINE"
);
},
{
closed = 1;
nodes = (
"174 375 LINE",
"360 375 LINE",
"360 431 LINE",
"174 431 LINE"
);
},
{
closed = 1;
nodes = (
"110 0 LINE",
"110 70 LINE",
"90 70 LINE",
"90 59 OFFCURVE",
"77 50 OFFCURVE",
"60 50 CURVE SMOOTH",
"30 50 LINE",
"30 0 LINE"
);
},
{
closed = 1;
nodes = (
"30 700 LINE",
"60 700 LINE SMOOTH",
"77 700 OFFCURVE",
"90 691 OFFCURVE",
"90 680 CURVE",
"110 680 LINE",
"110 750 LINE",
"30 750 LINE"
);
},
{
closed = 1;
nodes = (
"434 146 LINE",
"434 101 LINE SMOOTH",
"434 76 OFFCURVE",
"421 56 OFFCURVE",
"404 56 CURVE",
"404 36 LINE",
"510 36 LINE",
"510 146 LINE"
);
},
{
closed = 1;
nodes = (
"510 714 LINE",
"404 714 LINE",
"404 694 LINE",
"421 694 OFFCURVE",
"434 675 OFFCURVE",
"434 652 CURVE SMOOTH",
"434 610 LINE",
"510 610 LINE"
);
},
{
closed = 1;
nodes = (
"310 481 LINE",
"310 456 LINE SMOOTH",
"310 442 OFFCURVE",
"301 431 OFFCURVE",
"290 431 CURVE",
"290 411 LINE",
"360 411 LINE",
"360 481 LINE"
);
},
{
closed = 1;
nodes = (
"360 395 LINE",
"290 395 LINE",
"290 375 LINE",
"301 375 OFFCURVE",
"310 366 OFFCURVE",
"310 355 CURVE SMOOTH",
"310 335 LINE",
"360 335 LINE"
);
}
);
width = 540;
}
);
unicode = 0045;
},
{
glyphname = F;
lastChange = "2021-06-22 16:11:39 +0000";
layers = (
{
background = {
paths = (
{
closed = 1;
nodes = (
"510 0 LINE",
"510 146 LINE",
"434 146 LINE",
"434 101 LINE SMOOTH",
"434 76 OFFCURVE",
"421 56 OFFCURVE",
"404 56 CURVE SMOOTH",
"174 56 LINE",
"174 375 LINE",
"290 375 LINE SMOOTH",
"301 375 OFFCURVE",
"310 366 OFFCURVE",
"310 355 CURVE SMOOTH",
"310 335 LINE",
"360 335 LINE",
"360 481 LINE",
"310 481 LINE",
"310 456 LINE SMOOTH",
"310 442 OFFCURVE",
"301 431 OFFCURVE",
"290 431 CURVE SMOOTH",
"174 431 LINE",
"174 694 LINE",
"404 694 LINE SMOOTH",
"421 694 OFFCURVE",
"434 675 OFFCURVE",
"434 652 CURVE SMOOTH",
"434 610 LINE",
"510 610 LINE",
"510 750 LINE",
"30 750 LINE",
"30 700 LINE",
"60 700 LINE SMOOTH",
"77 700 OFFCURVE",
"90 691 OFFCURVE",
"90 680 CURVE SMOOTH",
"90 70 LINE SMOOTH",
"90 59 OFFCURVE",
"77 50 OFFCURVE",
"60 50 CURVE SMOOTH",
"30 50 LINE",
"30 0 LINE"
);
}
);
};
layerId = "A004749E-6E0D-4C42-B0DF-5F4E70329EE4";
paths = (
{
closed = 1;
nodes = (
"90 0 LINE",
"174 0 LINE",
"174 750 LINE",
"90 750 LINE"
);
},
{
closed = 1;
nodes = (
"174 694 LINE",
"510 694 LINE",
"510 750 LINE",
"174 750 LINE"
);
},
{
closed = 1;
nodes = (
"174 354 LINE",
"360 354 LINE",
"360 410 LINE",
"174 410 LINE"
);
},
{
closed = 1;
nodes = (
"110 0 LINE",
"110 70 LINE",
"90 70 LINE",
"90 59 OFFCURVE",
"77 50 OFFCURVE",
"60 50 CURVE SMOOTH",
"30 50 LINE",
"30 0 LINE"
);
},
{
closed = 1;
nodes = (
"30 700 LINE",
"60 700 LINE SMOOTH",
"77 700 OFFCURVE",
"90 691 OFFCURVE",
"90 680 CURVE",
"110 680 LINE",
"110 750 LINE",
"30 750 LINE"
);
},
{
closed = 1;
nodes = (
"510 714 LINE",
"404 714 LINE",
"404 694 LINE",
"421 694 OFFCURVE",
"434 675 OFFCURVE",
"434 652 CURVE SMOOTH",
"434 610 LINE",
"510 610 LINE"
);
},
{
closed = 1;
nodes = (
"310 460 LINE",
"310 435 LINE SMOOTH",
"310 421 OFFCURVE",
"301 410 OFFCURVE",
"290 410 CURVE",
"290 390 LINE",
"360 390 LINE",
"360 460 LINE"
);
},
{
closed = 1;
nodes = (
"360 374 LINE",
"290 374 LINE",
"290 354 LINE",
"301 354 OFFCURVE",
"310 345 OFFCURVE",
"310 334 CURVE SMOOTH",
"310 314 LINE",
"360 314 LINE"
);
},
{
closed = 1;
nodes = (
"254 50 LINE",
"204 50 LINE SMOOTH",
"187 50 OFFCURVE",
"174 59 OFFCURVE",
"174 70 CURVE",
"154 70 LINE",
"154 0 LINE",
"254 0 LINE"
);
}
);
width = 540;
}
);
unicode = 0046;
},
{
glyphname = G;
lastChange = "2021-06-21 20:41:43 +0000";
layers = (
{
background = {
paths = (
{
closed = 1;
nodes = (
"30 122 OFFCURVE",
"141 -15 OFFCURVE",
"337 -15 CURVE SMOOTH",
"417 -15 OFFCURVE",
"481 1 OFFCURVE",
"530 31 CURVE",
"530 146 LINE",
"480 146 LINE",
"470 77 OFFCURVE",
"414 41 OFFCURVE",
"347 41 CURVE SMOOTH",
"216 41 OFFCURVE",
"130 158 OFFCURVE",
"130 376 CURVE SMOOTH",
"130 592 OFFCURVE",
"200 709 OFFCURVE",
"331 709 CURVE SMOOTH",
"397 709 OFFCURVE",
"457 693 OFFCURVE",
"480 610 CURVE",
"530 610 LINE",
"530 740 LINE",
"481 756 OFFCURVE",
"414 765 OFFCURVE",
"331 765 CURVE SMOOTH",
"135 765 OFFCURVE",
"30 629 OFFCURVE",
"30 376 CURVE SMOOTH"
);
}
);
};
layerId = "A004749E-6E0D-4C42-B0DF-5F4E70329EE4";
paths = (
{
closed = 1;
nodes = (
"386 270 LINE",
"416 270 LINE SMOOTH",
"433 270 OFFCURVE",
"446 261 OFFCURVE",
"446 250 CURVE",
"466 250 LINE",
"466 320 LINE",
"386 320 LINE"
);
},
{
closed = 1;
nodes = (
"510 320 LINE",
"510 250 LINE",
"530 250 LINE",
"530 261 OFFCURVE",
"539 270 OFFCURVE",
"550 270 CURVE",
"550 320 LINE"
);
},
{
closed = 1;
nodes = (
"30 122 OFFCURVE",
"141 -15 OFFCURVE",
"337 -15 CURVE SMOOTH",
"404 -15 OFFCURVE",
"471 -10 OFFCURVE",
"530 0 CURVE",
"530 320 LINE",
"446 320 LINE",
"446 78 LINE SMOOTH",
"446 51 OFFCURVE",
"407 41 OFFCURVE",
"347 41 CURVE SMOOTH",
"216 41 OFFCURVE",
"130 158 OFFCURVE",
"130 376 CURVE SMOOTH",
"130 592 OFFCURVE",
"200 709 OFFCURVE",
"331 709 CURVE SMOOTH",
"397 709 OFFCURVE",
"457 693 OFFCURVE",
"480 610 CURVE",
"530 610 LINE",
"530 740 LINE",
"481 756 OFFCURVE",
"414 765 OFFCURVE",
"331 765 CURVE SMOOTH",
"135 765 OFFCURVE",
"30 629 OFFCURVE",
"30 376 CURVE SMOOTH"
);
}
);
width = 580;
}
);
unicode = 0047;
},
{
glyphname = H;
lastChange = "2021-06-22 16:00:33 +0000";
layers = (
{
background = {
paths = (
{
closed = 1;
nodes = (
"525 -15 OFFCURVE",
"630 122 OFFCURVE",
"630 376 CURVE SMOOTH",
"630 629 OFFCURVE",
"525 765 OFFCURVE",
"331 765 CURVE SMOOTH",
"135 765 OFFCURVE",
"30 629 OFFCURVE",
"30 376 CURVE SMOOTH",
"30 122 OFFCURVE",
"135 -15 OFFCURVE",
"331 -15 CURVE SMOOTH"
);
},
{
closed = 1;
nodes = (
"200 41 OFFCURVE",
"130 158 OFFCURVE",
"130 376 CURVE SMOOTH",
"130 592 OFFCURVE",
"200 709 OFFCURVE",
"331 709 CURVE SMOOTH",
"460 709 OFFCURVE",
"530 592 OFFCURVE",
"530 376 CURVE SMOOTH",
"530 158 OFFCURVE",
"460 41 OFFCURVE",
"331 41 CURVE SMOOTH"
);
}
);
};
layerId = "A004749E-6E0D-4C42-B0DF-5F4E70329EE4";
paths = (
{
closed = 1;
nodes = (
"90 0 LINE",
"174 0 LINE",
"174 750 LINE",
"90 750 LINE"
);
},
{
closed = 1;
nodes = (
"110 0 LINE",
"110 70 LINE",
"90 70 LINE",
"90 59 OFFCURVE",
"77 50 OFFCURVE",
"60 50 CURVE SMOOTH",
"30 50 LINE",
"30 0 LINE"
);
},
{
closed = 1;
nodes = (
"30 700 LINE",
"60 700 LINE SMOOTH",
"77 700 OFFCURVE",
"90 691 OFFCURVE",
"90 680 CURVE",
"110 680 LINE",
"110 750 LINE",
"30 750 LINE"
);
},
{
closed = 1;
nodes = (
"154 750 LINE",
"154 680 LINE",
"174 680 LINE",
"174 691 OFFCURVE",
"187 700 OFFCURVE",
"204 700 CURVE SMOOTH",
"234 700 LINE",
"234 750 LINE"
);
},
{
closed = 1;
nodes = (
"234 50 LINE",
"204 50 LINE SMOOTH",
"187 50 OFFCURVE",
"174 59 OFFCURVE",
"174 70 CURVE",
"154 70 LINE",
"154 0 LINE",
"234 0 LINE"
);
},
{
closed = 1;
nodes = (
"486 750 LINE",
"486 0 LINE",
"570 0 LINE",
"570 750 LINE"
);
},
{
closed = 1;
nodes = (
"630 50 LINE",
"600 50 LINE SMOOTH",
"583 50 OFFCURVE",
"570 59 OFFCURVE",
"570 70 CURVE",
"550 70 LINE",
"550 0 LINE",
"630 0 LINE"
);
},
{
closed = 1;
nodes = (
"550 750 LINE",
"550 680 LINE",
"570 680 LINE",
"570 691 OFFCURVE",
"583 700 OFFCURVE",
"600 700 CURVE SMOOTH",
"630 700 LINE",
"630 750 LINE"
);
},
{
closed = 1;
nodes = (
"426 700 LINE",
"456 700 LINE SMOOTH",
"473 700 OFFCURVE",
"486 691 OFFCURVE",
"486 680 CURVE",
"506 680 LINE",
"506 750 LINE",
"426 750 LINE"
);
},
{
closed = 1;
nodes = (
"506 0 LINE",
"506 70 LINE",
"486 70 LINE",
"486 59 OFFCURVE",
"473 50 OFFCURVE",
"456 50 CURVE SMOOTH",
"426 50 LINE",
"426 0 LINE"
);
},
{
closed = 1;
nodes = (
"486 375 LINE",
"486 431 LINE",
"174 431 LINE",
"174 375 LINE"
);
}
);
width = 660;
}
);
unicode = 0048;
},
{
glyphname = I;
lastChange = "2021-06-22 15:55:11 +0000";
layers = (
{
layerId = "A004749E-6E0D-4C42-B0DF-5F4E70329EE4";
paths = (
{
closed = 1;
nodes = (
"110 0 LINE",
"194 0 LINE",
"194 750 LINE",
"110 750 LINE"
);
},
{
closed = 1;
nodes = (
"130 0 LINE",
"130 70 LINE",
"110 70 LINE",
"110 59 OFFCURVE",
"97 50 OFFCURVE",
"80 50 CURVE SMOOTH",
"30 50 LINE",
"30 0 LINE"
);
},
{
closed = 1;
nodes = (
"30 700 LINE",
"80 700 LINE SMOOTH",
"97 700 OFFCURVE",
"110 691 OFFCURVE",
"110 680 CURVE",
"130 680 LINE",
"130 750 LINE",
"30 750 LINE"
);
},
{
closed = 1;
nodes = (
"274 50 LINE",
"224 50 LINE SMOOTH",
"207 50 OFFCURVE",
"194 59 OFFCURVE",
"194 70 CURVE",
"174 70 LINE",
"174 0 LINE",
"274 0 LINE"
);
},
{
closed = 1;
nodes = (
"174 750 LINE",
"174 680 LINE",
"194 680 LINE",
"194 691 OFFCURVE",
"207 700 OFFCURVE",
"224 700 CURVE SMOOTH",
"274 700 LINE",
"274 750 LINE"
);
}
);
width = 304;
}
);
unicode = 0049;
},
{
glyphname = J;
lastChange = "2021-06-22 11:29:14 +0000";
layers = (
{
layerId = "A004749E-6E0D-4C42-B0DF-5F4E70329EE4";
paths = (
{
closed = 1;
nodes = (
"166 700 LINE",
"216 700 LINE SMOOTH",
"233 700 OFFCURVE",
"246 691 OFFCURVE",
"246 680 CURVE SMOOTH",
"246 207 LINE",
"330 207 LINE",
"330 750 LINE",
"166 750 LINE"
);
},
{
closed = 1;
nodes = (
"310 750 LINE",
"310 680 LINE",
"330 680 LINE",
"330 691 OFFCURVE",
"343 700 OFFCURVE",
"360 700 CURVE SMOOTH",
"410 700 LINE",
"410 750 LINE"
);
},
{
closed = 1;
nodes = (
"246 207 LINE",
"246 108 OFFCURVE",
"202 56 OFFCURVE",
"120 56 CURVE SMOOTH",
"30 56 LINE",
"30 0 LINE",
"122 0 LINE SMOOTH",
"258 0 OFFCURVE",
"330 72 OFFCURVE",
"330 207 CURVE"
);
},
{
closed = 1;
nodes = (
"30 36 LINE",
"100 36 LINE",
"100 56 LINE",
"89 56 OFFCURVE",
"80 72 OFFCURVE",
"80 86 CURVE SMOOTH",
"80 126 LINE",
"30 126 LINE"
);
}
);
width = 440;
}
);
unicode = 004A;
},
{
glyphname = K;
lastChange = "2021-06-23 09:00:37 +0000";
layers = (
{
guideLines = (
{
angle = -48.4322;
position = "{125, 518}";
}
);
layerId = "A004749E-6E0D-4C42-B0DF-5F4E70329EE4";
paths = (
{
closed = 1;
nodes = (
"90 0 LINE",
"174 0 LINE",
"174 750 LINE",
"90 750 LINE"
);
},
{
closed = 1;
nodes = (
"110 0 LINE",
"110 70 LINE",
"90 70 LINE",
"90 59 OFFCURVE",
"77 50 OFFCURVE",
"60 50 CURVE SMOOTH",
"30 50 LINE",
"30 0 LINE"
);
},
{
closed = 1;
nodes = (
"30 700 LINE",
"60 700 LINE SMOOTH",
"77 700 OFFCURVE",
"90 691 OFFCURVE",
"90 680 CURVE",
"110 680 LINE",
"110 750 LINE",
"30 750 LINE"
);
},
{
closed = 1;
nodes = (
"234 50 LINE",
"204 50 LINE SMOOTH",
"187 50 OFFCURVE",
"174 59 OFFCURVE",
"174 70 CURVE",
"154 70 LINE",
"154 0 LINE",
"234 0 LINE"
);
},
{
closed = 1;
nodes = (
"154 750 LINE",
"154 680 LINE",
"174 680 LINE",
"174 691 OFFCURVE",
"187 700 OFFCURVE",
"204 700 CURVE SMOOTH",
"234 700 LINE",
"234 750 LINE"
);
},
{
closed = 1;
nodes = (
"94 375 LINE",
"170 375 LINE",
"170 431 LINE",
"94 431 LINE"
);
},
{
closed = 1;
nodes = (
"475 684 LINE SMOOTH",
"481 690 OFFCURVE",
"489 694 OFFCURVE",
"498 694 CURVE SMOOTH",
"530 694 LINE",
"530 750 LINE",
"326 750 LINE",
"326 694 LINE",
"371 694 LINE",
"125 415 LINE",
"125 289 LINE"
);
},
{
closed = 1;
nodes = (
"415 56 LINE",
"366 56 LINE",
"366 0 LINE",
"570 0 LINE",
"570 56 LINE",
"540 56 LINE SMOOTH",
"531 56 OFFCURVE",
"523 60 OFFCURVE",
"517 67 CURVE SMOOTH",
"126 519 LINE",
"125 393 LINE"
);
}
);
width = 600;
}
);
unicode = 004B;
},
{
glyphname = L;
lastChange = "2021-06-22 16:15:11 +0000";
layers = (
{
background = {
paths = (
{
closed = 1;
nodes = (
"510 0 LINE",
"510 146 LINE",
"434 146 LINE",
"434 101 LINE SMOOTH",
"434 76 OFFCURVE",
"421 56 OFFCURVE",
"404 56 CURVE SMOOTH",
"174 56 LINE",
"174 375 LINE",
"290 375 LINE SMOOTH",
"301 375 OFFCURVE",
"310 366 OFFCURVE",
"310 355 CURVE SMOOTH",
"310 335 LINE",
"360 335 LINE",
"360 481 LINE",
"310 481 LINE",
"310 456 LINE SMOOTH",
"310 442 OFFCURVE",
"301 431 OFFCURVE",
"290 431 CURVE SMOOTH",
"174 431 LINE",
"174 694 LINE",
"404 694 LINE SMOOTH",
"421 694 OFFCURVE",
"434 675 OFFCURVE",
"434 652 CURVE SMOOTH",
"434 610 LINE",
"510 610 LINE",
"510 750 LINE",
"30 750 LINE",
"30 700 LINE",
"60 700 LINE SMOOTH",
"77 700 OFFCURVE",
"90 691 OFFCURVE",
"90 680 CURVE SMOOTH",
"90 70 LINE SMOOTH",
"90 59 OFFCURVE",
"77 50 OFFCURVE",
"60 50 CURVE SMOOTH",
"30 50 LINE",
"30 0 LINE"
);
}
);
};
layerId = "A004749E-6E0D-4C42-B0DF-5F4E70329EE4";
paths = (
{
closed = 1;
nodes = (
"90 0 LINE",
"174 0 LINE",
"174 750 LINE",
"90 750 LINE"
);
},
{
closed = 1;
nodes = (
"174 0 LINE",
"510 0 LINE",
"510 56 LINE",
"174 56 LINE"
);
},
{
closed = 1;
nodes = (
"110 0 LINE",
"110 70 LINE",
"90 70 LINE",
"90 59 OFFCURVE",
"77 50 OFFCURVE",
"60 50 CURVE SMOOTH",
"30 50 LINE",
"30 0 LINE"
);
},
{
closed = 1;
nodes = (
"30 700 LINE",
"60 700 LINE SMOOTH",
"77 700 OFFCURVE",
"90 691 OFFCURVE",
"90 680 CURVE",
"110 680 LINE",
"110 750 LINE",
"30 750 LINE"
);
},
{
closed = 1;
nodes = (
"434 146 LINE",
"434 101 LINE SMOOTH",
"434 76 OFFCURVE",
"421 56 OFFCURVE",
"404 56 CURVE",
"404 36 LINE",
"510 36 LINE",
"510 146 LINE"
);
},
{
closed = 1;
nodes = (
"154 750 LINE",
"154 680 LINE",
"174 680 LINE",
"174 691 OFFCURVE",
"187 700 OFFCURVE",
"204 700 CURVE SMOOTH",
"254 700 LINE",
"254 750 LINE"
);
}
);
width = 540;
}
);
unicode = 004C;
},
{
glyphname = M;
lastChange = "2021-06-22 20:48:25 +0000";
layers = (
{
background = {
paths = (
{
closed = 1;
nodes = (
"90 756 LINE",
"126 756 LINE SMOOTH",
"141 756 OFFCURVE",
"154 746 OFFCURVE",
"158 732 CURVE SMOOTH",
"354 56 LINE",
"446 56 LINE",
"642 732 LINE SMOOTH",
"646 746 OFFCURVE",
"659 756 OFFCURVE",
"674 756 CURVE SMOOTH",
"710 756 LINE",
"710 806 LINE",
"499 806 LINE",
"499 756 LINE",
"541 756 LINE SMOOTH",
"553 756 OFFCURVE",
"563 746 OFFCURVE",
"559 733 CURVE SMOOTH",
"405 200 LINE",
"395 200 LINE",
"241 733 LINE SMOOTH",
"237 746 OFFCURVE",
"247 756 OFFCURVE",
"259 756 CURVE SMOOTH",
"301 756 LINE",
"301 806 LINE",
"90 806 LINE"
);
}
);
};
guideLines = (
{
angle = 252.8973;
position = "{487, 467}";
}
);
layerId = "A004749E-6E0D-4C42-B0DF-5F4E70329EE4";
paths = (
{
closed = 1;
nodes = (
"60 700 LINE SMOOTH",
"77 700 OFFCURVE",
"90 691 OFFCURVE",
"90 680 CURVE",
"110 680 LINE",
"110 750 LINE",
"30 750 LINE",
"30 700 LINE"
);
},
{
closed = 1;
nodes = (
"770 750 LINE",
"690 750 LINE",
"690 680 LINE",
"710 680 LINE",
"710 691 OFFCURVE",
"723 700 OFFCURVE",
"740 700 CURVE SMOOTH",
"770 700 LINE"
);
},
{
closed = 1;
nodes = (
"646 0 LINE",
"646 70 LINE",
"626 70 LINE",
"626 59 OFFCURVE",
"613 50 OFFCURVE",
"596 50 CURVE SMOOTH",
"556 50 LINE",
"556 0 LINE"
);
},
{
closed = 1;
nodes = (
"244 50 LINE",
"204 50 LINE SMOOTH",
"187 50 OFFCURVE",
"174 59 OFFCURVE",
"174 70 CURVE",
"154 70 LINE",
"154 0 LINE",
"244 0 LINE"
);
},
{
closed = 1;
nodes = (
"174 0 LINE",
"174 637 LINE",
"177 637 LINE",
"354 56 LINE",
"446 56 LINE",
"623 637 LINE",
"626 637 LINE",
"626 0 LINE",
"770 0 LINE",
"770 50 LINE",
"740 50 LINE SMOOTH",
"723 50 OFFCURVE",
"710 59 OFFCURVE",
"710 70 CURVE SMOOTH",
"710 750 LINE",
"574 750 LINE",
"405 200 LINE",
"395 200 LINE",
"226 750 LINE",
"90 750 LINE",
"90 70 LINE SMOOTH",
"90 59 OFFCURVE",
"77 50 OFFCURVE",
"60 50 CURVE SMOOTH",
"30 50 LINE",
"30 0 LINE"
);
}
);
width = 800;
}
);
unicode = 004D;
},
{
glyphname = N;
lastChange = "2021-06-22 20:59:50 +0000";
layers = (
{
layerId = "A004749E-6E0D-4C42-B0DF-5F4E70329EE4";
paths = (
{
closed = 1;
nodes = (
"110 0 LINE",
"110 70 LINE",
"90 70 LINE",
"90 59 OFFCURVE",
"77 50 OFFCURVE",
"60 50 CURVE SMOOTH",
"30 50 LINE",
"30 0 LINE"
);
},
{
closed = 1;
nodes = (
"60 700 LINE SMOOTH",
"77 700 OFFCURVE",
"90 691 OFFCURVE",
"90 680 CURVE",
"110 680 LINE",
"110 750 LINE",
"30 750 LINE",
"30 700 LINE"
);
},
{
closed = 1;
nodes = (
"486 0 LINE",
"570 0 LINE",
"570 20.27 LINE",
"174 750 LINE",
"90 750 LINE",
"90 0 LINE",
"174 0 LINE",
"174 750 LINE",
"79 750 LINE"
);
},
{
closed = 1;
nodes = (
"244 0 LINE",
"244 50 LINE",
"204 50 LINE SMOOTH",
"187 50 OFFCURVE",
"174 59 OFFCURVE",
"174 70 CURVE",
"154 70 LINE",
"154 0 LINE"
);
},
{
closed = 1;
nodes = (
"570 0 LINE",
"570 750 LINE",
"486 750 LINE",
"486 0 LINE"
);
},
{
closed = 1;
nodes = (
"456 700 LINE SMOOTH",
"473 700 OFFCURVE",
"486 691 OFFCURVE",
"486 680 CURVE",
"506 680 LINE",
"506 750 LINE",
"416 750 LINE",
"416 700 LINE"
);
},
{
closed = 1;
nodes = (
"570 680 LINE",
"570 691 OFFCURVE",
"583 700 OFFCURVE",
"600 700 CURVE SMOOTH",
"630 700 LINE",
"630 750 LINE",
"550 750 LINE",
"550 680 LINE"
);
}
);
width = 660;
}
);
unicode = 004E;
},
{
glyphname = O;
lastChange = "2021-06-22 13:30:44 +0000";
layers = (
{
layerId = "A004749E-6E0D-4C42-B0DF-5F4E70329EE4";
paths = (
{
closed = 1;
nodes = (
"525 -15 OFFCURVE",
"630 122 OFFCURVE",
"630 376 CURVE SMOOTH",
"630 629 OFFCURVE",
"525 765 OFFCURVE",
"331 765 CURVE SMOOTH",
"135 765 OFFCURVE",
"30 629 OFFCURVE",
"30 376 CURVE SMOOTH",
"30 122 OFFCURVE",
"135 -15 OFFCURVE",
"331 -15 CURVE SMOOTH"
);
},
{
closed = 1;
nodes = (
"200 41 OFFCURVE",
"130 158 OFFCURVE",
"130 376 CURVE SMOOTH",
"130 592 OFFCURVE",
"200 709 OFFCURVE",
"331 709 CURVE SMOOTH",
"460 709 OFFCURVE",
"530 592 OFFCURVE",
"530 376 CURVE SMOOTH",
"530 158 OFFCURVE",
"460 41 OFFCURVE",
"331 41 CURVE SMOOTH"
);
}
);
width = 660;
}
);
unicode = 004F;
},
{
glyphname = P;
lastChange = "2021-06-23 10:19:21 +0000";
layers = (
{
background = {
paths = (
{
closed = 1;
nodes = (
"174 0 LINE",
"174 750 LINE",
"30 750 LINE",
"30 700 LINE",
"60 700 LINE SMOOTH",
"77 700 OFFCURVE",
"90 691 OFFCURVE",
"90 680 CURVE SMOOTH",
"90 70 LINE SMOOTH",
"90 59 OFFCURVE",
"77 50 OFFCURVE",
"60 50 CURVE SMOOTH",
"30 50 LINE",
"30 0 LINE"
);
},
{
closed = 1;
nodes = (
"276 694 LINE SMOOTH",
"353 694 OFFCURVE",
"400 648 OFFCURVE",
"400 563 CURVE SMOOTH",
"400 477 OFFCURVE",
"353 431 OFFCURVE",
"276 431 CURVE SMOOTH",
"174 431 LINE",
"174 375 LINE",
"281 375 LINE SMOOTH",
"417 375 OFFCURVE",
"490 441 OFFCURVE",
"490 563 CURVE SMOOTH",
"490 685 OFFCURVE",
"417 750 OFFCURVE",
"281 750 CURVE SMOOTH",
"174 750 LINE",
"174 694 LINE"
);
},
{
closed = 1;
nodes = (
"281 375 LINE SMOOTH",
"365 375 OFFCURVE",
"410 319 OFFCURVE",
"410 216 CURVE SMOOTH",
"410 112 OFFCURVE",
"365 56 OFFCURVE",
"281 56 CURVE SMOOTH",
"174 56 LINE",
"174 0 LINE",
"281 0 LINE SMOOTH",
"430 0 OFFCURVE",
"510 76 OFFCURVE",
"510 216 CURVE SMOOTH",
"510 356 OFFCURVE",
"430 431 OFFCURVE",
"281 431 CURVE SMOOTH",
"174 431 LINE",
"174 375 LINE"
);
}
);
};
layerId = "A004749E-6E0D-4C42-B0DF-5F4E70329EE4";
paths = (
{
closed = 1;
nodes = (
"174 0 LINE",
"174 750 LINE",
"30 750 LINE",
"30 700 LINE",
"60 700 LINE SMOOTH",
"77 700 OFFCURVE",
"90 691 OFFCURVE",
"90 680 CURVE SMOOTH",
"90 70 LINE SMOOTH",
"90 59 OFFCURVE",
"77 50 OFFCURVE",
"60 50 CURVE SMOOTH",
"30 50 LINE",
"30 0 LINE"
);
},
{
closed = 1;
nodes = (
"276 694 LINE SMOOTH",
"357 694 OFFCURVE",
"400 641 OFFCURVE",
"400 543 CURVE SMOOTH",
"400 444 OFFCURVE",
"357 392 OFFCURVE",
"276 392 CURVE SMOOTH",
"174 392 LINE",
"174 336 LINE",
"281 336 LINE SMOOTH",
"417 336 OFFCURVE",
"490 408 OFFCURVE",
"490 543 CURVE SMOOTH",
"490 678 OFFCURVE",
"417 750 OFFCURVE",
"281 750 CURVE SMOOTH",
"174 750 LINE",
"174 694 LINE"
);
},
{
closed = 1;
nodes = (
"254 50 LINE",
"204 50 LINE SMOOTH",
"187 50 OFFCURVE",
"174 59 OFFCURVE",
"174 70 CURVE",
"154 70 LINE",
"154 0 LINE",
"254 0 LINE"
);
}
);
width = 520;
}
);
unicode = 0050;
},
{
glyphname = Thorn;
lastChange = "2021-06-23 10:21:15 +0000";
layers = (
{
layerId = "A004749E-6E0D-4C42-B0DF-5F4E70329EE4";
paths = (
{
closed = 1;
nodes = (
"174 0 LINE",
"174 750 LINE",
"30 750 LINE",
"30 700 LINE",
"60 700 LINE SMOOTH",
"77 700 OFFCURVE",
"90 691 OFFCURVE",
"90 680 CURVE SMOOTH",
"90 70 LINE SMOOTH",
"90 59 OFFCURVE",
"77 50 OFFCURVE",
"60 50 CURVE SMOOTH",
"30 50 LINE",
"30 0 LINE"
);
},
{
closed = 1;
nodes = (
"276 551 LINE SMOOTH",
"357 551 OFFCURVE",
"400 498 OFFCURVE",
"400 400 CURVE SMOOTH",
"400 301 OFFCURVE",
"357 249 OFFCURVE",
"276 249 CURVE SMOOTH",
"174 249 LINE",
"174 193 LINE",
"281 193 LINE SMOOTH",
"417 193 OFFCURVE",
"490 265 OFFCURVE",
"490 400 CURVE SMOOTH",
"490 535 OFFCURVE",
"417 607 OFFCURVE",
"281 607 CURVE SMOOTH",
"174 607 LINE",
"174 551 LINE"
);
},
{
closed = 1;
nodes = (
"254 50 LINE",
"204 50 LINE SMOOTH",
"187 50 OFFCURVE",
"174 59 OFFCURVE",
"174 70 CURVE",
"154 70 LINE",
"154 0 LINE",
"254 0 LINE"
);
},
{
closed = 1;
nodes = (
"154 750 LINE",
"154 680 LINE",
"174 680 LINE",
"174 691 OFFCURVE",
"187 700 OFFCURVE",
"204 700 CURVE SMOOTH",
"254 700 LINE",
"254 750 LINE"
);
}
);
width = 520;
}
);
unicode = 00DE;
},
{
glyphname = Q;
lastChange = "2021-06-22 13:19:50 +0000";
layers = (
{
layerId = "A004749E-6E0D-4C42-B0DF-5F4E70329EE4";
paths = (
{
closed = 1;
nodes = (
"525 -15 OFFCURVE",
"630 122 OFFCURVE",
"630 376 CURVE SMOOTH",
"630 629 OFFCURVE",
"525 765 OFFCURVE",
"331 765 CURVE SMOOTH",
"135 765 OFFCURVE",
"30 629 OFFCURVE",
"30 376 CURVE SMOOTH",
"30 122 OFFCURVE",
"135 -15 OFFCURVE",
"331 -15 CURVE SMOOTH"
);
},
{
closed = 1;
nodes = (
"200 41 OFFCURVE",
"130 158 OFFCURVE",
"130 376 CURVE SMOOTH",
"130 592 OFFCURVE",
"200 709 OFFCURVE",
"331 709 CURVE SMOOTH",
"460 709 OFFCURVE",
"530 592 OFFCURVE",
"530 376 CURVE SMOOTH",
"530 158 OFFCURVE",
"460 41 OFFCURVE",
"331 41 CURVE SMOOTH"
);
},
{
closed = 1;
nodes = (
"624 146 LINE",
"624 101 LINE SMOOTH",
"624 76 OFFCURVE",
"611 56 OFFCURVE",
"594 56 CURVE",
"594 0 LINE",
"700 0 LINE",
"700 146 LINE"
);
},
{
closed = 1;
nodes = (
"405 0 LINE",
"594 0 LINE",
"594 56 LINE",
"405 56 LINE"
);
}
);
width = 730;
}
);
unicode = 0051;
},
{
glyphname = R;
lastChange = "2021-06-22 11:10:24 +0000";
layers = (
{
background = {
paths = (
{
closed = 1;
nodes = (
"281 0 LINE SMOOTH",
"430 0 OFFCURVE",
"510 76 OFFCURVE",
"510 216 CURVE SMOOTH",
"510 307 OFFCURVE",
"476 371 OFFCURVE",
"411 404 CURVE",
"463 435 OFFCURVE",
"490 488 OFFCURVE",
"490 563 CURVE SMOOTH",
"490 685 OFFCURVE",
"417 750 OFFCURVE",
"281 750 CURVE SMOOTH",
"30 750 LINE",
"30 700 LINE",
"60 700 LINE SMOOTH",
"77 700 OFFCURVE",
"90 691 OFFCURVE",
"90 680 CURVE SMOOTH",
"90 70 LINE SMOOTH",
"90 59 OFFCURVE",
"77 50 OFFCURVE",
"60 50 CURVE SMOOTH",
"30 50 LINE",
"30 0 LINE"
);
},
{
closed = 1;
nodes = (
"174 375 LINE",
"281 375 LINE SMOOTH",
"365 375 OFFCURVE",
"410 319 OFFCURVE",
"410 216 CURVE SMOOTH",
"410 112 OFFCURVE",
"365 56 OFFCURVE",
"281 56 CURVE SMOOTH",
"174 56 LINE"
);
},
{
closed = 1;
nodes = (
"174 694 LINE",
"276 694 LINE SMOOTH",
"353 694 OFFCURVE",
"400 648 OFFCURVE",
"400 563 CURVE SMOOTH",
"400 477 OFFCURVE",
"353 431 OFFCURVE",
"276 431 CURVE SMOOTH",
"174 431 LINE"
);
}
);
};
layerId = "A004749E-6E0D-4C42-B0DF-5F4E70329EE4";
paths = (
{
closed = 1;
nodes = (
"174 0 LINE",
"174 750 LINE",
"30 750 LINE",
"30 700 LINE",
"60 700 LINE SMOOTH",
"77 700 OFFCURVE",
"90 691 OFFCURVE",
"90 680 CURVE SMOOTH",
"90 70 LINE SMOOTH",
"90 59 OFFCURVE",
"77 50 OFFCURVE",
"60 50 CURVE SMOOTH",
"30 50 LINE",
"30 0 LINE"
);
},
{
closed = 1;
nodes = (
"276 694 LINE SMOOTH",
"357 694 OFFCURVE",
"400 644 OFFCURVE",
"400 552 CURVE SMOOTH",
"400 460 OFFCURVE",
"357 410 OFFCURVE",
"276 410 CURVE SMOOTH",
"174 410 LINE",
"174 355 LINE",
"281 355 LINE SMOOTH",
"417 355 OFFCURVE",
"490 424 OFFCURVE",
"490 552 CURVE SMOOTH",
"490 681 OFFCURVE",
"417 750 OFFCURVE",
"281 750 CURVE SMOOTH",
"174 750 LINE",
"174 694 LINE"
);
},
{
closed = 1;
nodes = (
"234 50 LINE",
"204 50 LINE SMOOTH",
"187 50 OFFCURVE",
"174 59 OFFCURVE",
"174 70 CURVE",
"154 70 LINE",
"154 0 LINE",
"234 0 LINE"
);
},
{
closed = 1;
nodes = (
"251 355 LINE SMOOTH",
"330 355 OFFCURVE",
"382 216 OFFCURVE",
"421 0 CURVE",
"550 0 LINE",
"550 50 LINE",
"528 50 LINE SMOOTH",
"511 50 OFFCURVE",
"498 61 OFFCURVE",
"495 78 CURVE SMOOTH",
"460 260 OFFCURVE",
"410 401 OFFCURVE",
"280 401 CURVE SMOOTH",
"174 401 LINE",
"174 355 LINE"
);
}
);
width = 580;
}
);
unicode = 0052;
},
{
glyphname = S;
lastChange = "2021-06-22 15:45:23 +0000";
layers = (
{
background = {
paths = (
{
closed = 1;
nodes = (
"12 122 OFFCURVE",
"123 -15 OFFCURVE",
"319 -15 CURVE SMOOTH",
"399 -15 OFFCURVE",
"463 1 OFFCURVE",
"512 31 CURVE",
"512 146 LINE",
"462 146 LINE",
"452 77 OFFCURVE",
"396 41 OFFCURVE",
"329 41 CURVE SMOOTH",
"198 41 OFFCURVE",
"112 158 OFFCURVE",
"112 376 CURVE SMOOTH",
"112 592 OFFCURVE",
"182 709 OFFCURVE",
"313 709 CURVE SMOOTH",
"379 709 OFFCURVE",
"439 693 OFFCURVE",
"462 610 CURVE",
"512 610 LINE",
"512 740 LINE",
"463 756 OFFCURVE",
"396 765 OFFCURVE",
"313 765 CURVE SMOOTH",
"117 765 OFFCURVE",
"12 629 OFFCURVE",
"12 376 CURVE SMOOTH"
);
}
);
};
layerId = "A004749E-6E0D-4C42-B0DF-5F4E70329EE4";
paths = (
{
closed = 1;
nodes = (
"30 54 OFFCURVE",
"100 -15 OFFCURVE",
"230 -15 CURVE SMOOTH",
"360 -15 OFFCURVE",
"430 54 OFFCURVE",
"430 181 CURVE SMOOTH",
"430 259 OFFCURVE",
"390 343 OFFCURVE",
"300 397 CURVE SMOOTH",
"201 457 OFFCURVE",
"146 518 OFFCURVE",
"146 581 CURVE SMOOTH",
"146 664 OFFCURVE",
"191 709 OFFCURVE",
"258 709 CURVE SMOOTH",
"325 709 OFFCURVE",
"370 654 OFFCURVE",
"370 571 CURVE",
"426 571 LINE",
"426 697 OFFCURVE",
"360 765 OFFCURVE",
"236 765 CURVE SMOOTH",
"112 765 OFFCURVE",
"46 697 OFFCURVE",
"46 571 CURVE SMOOTH",
"46 493 OFFCURVE",
"86 409 OFFCURVE",
"176 355 CURVE SMOOTH",
"275 296 OFFCURVE",
"330 244 OFFCURVE",
"330 181 CURVE SMOOTH",
"330 97 OFFCURVE",
"290 41 OFFCURVE",
"230 41 CURVE SMOOTH",
"140 41 OFFCURVE",
"86 97 OFFCURVE",
"86 181 CURVE",
"30 181 LINE"
);
},
{
closed = 1;
nodes = (
"30 0 LINE",
"80 0 LINE",
"80 82 LINE",
"86 82 LINE",
"86 181 LINE",
"30 181 LINE"
);
},
{
closed = 1;
nodes = (
"426 750 LINE",
"376 750 LINE",
"376 670 LINE",
"370 670 LINE",
"370 571 LINE",
"426 571 LINE"
);
}
);
width = 460;
}
);
unicode = 0053;
},
{
glyphname = T;
lastChange = "2021-06-22 16:07:05 +0000";
layers = (
{
background = {
paths = (
{
closed = 1;
nodes = (
"199 0 LINE",
"199 50 LINE",
"169 50 LINE SMOOTH",
"152 50 OFFCURVE",
"139 59 OFFCURVE",
"139 70 CURVE SMOOTH",
"139 375 LINE",
"451 375 LINE",
"451 70 LINE SMOOTH",
"451 59 OFFCURVE",
"438 50 OFFCURVE",
"421 50 CURVE SMOOTH",
"391 50 LINE",
"391 0 LINE",
"595 0 LINE",
"595 50 LINE",
"565 50 LINE SMOOTH",
"548 50 OFFCURVE",
"535 59 OFFCURVE",
"535 70 CURVE SMOOTH",
"535 680 LINE SMOOTH",
"535 691 OFFCURVE",
"548 700 OFFCURVE",
"565 700 CURVE SMOOTH",
"595 700 LINE",
"595 750 LINE",
"391 750 LINE",
"391 700 LINE",
"421 700 LINE SMOOTH",
"438 700 OFFCURVE",
"451 691 OFFCURVE",
"451 680 CURVE SMOOTH",
"451 431 LINE",
"139 431 LINE",
"139 680 LINE SMOOTH",
"139 691 OFFCURVE",
"152 700 OFFCURVE",
"169 700 CURVE SMOOTH",
"199 700 LINE",
"199 750 LINE",
"-5 750 LINE",
"-5 700 LINE",
"25 700 LINE SMOOTH",
"42 700 OFFCURVE",
"55 691 OFFCURVE",
"55 680 CURVE SMOOTH",
"55 70 LINE SMOOTH",
"55 59 OFFCURVE",
"42 50 OFFCURVE",
"25 50 CURVE SMOOTH",
"-5 50 LINE",
"-5 0 LINE"
);
}
);
};
layerId = "A004749E-6E0D-4C42-B0DF-5F4E70329EE4";
paths = (
{
closed = 1;
nodes = (
"253 0 LINE",
"337 0 LINE",
"337 750 LINE",
"253 750 LINE"
);
},
{
closed = 1;
nodes = (
"273 0 LINE",
"273 70 LINE",
"253 70 LINE",
"253 59 OFFCURVE",
"240 50 OFFCURVE",
"223 50 CURVE SMOOTH",
"173 50 LINE",
"173 0 LINE"
);
},
{
closed = 1;
nodes = (
"417 50 LINE",
"367 50 LINE SMOOTH",
"350 50 OFFCURVE",
"337 59 OFFCURVE",
"337 70 CURVE",
"317 70 LINE",
"317 0 LINE",
"417 0 LINE"
);
},
{
closed = 1;
nodes = (
"560 694 LINE",
"560 750 LINE",
"30 750 LINE",
"30 694 LINE"
);
},
{
closed = 1;
nodes = (
"560 714 LINE",
"454 714 LINE",
"454 694 LINE",
"471 694 OFFCURVE",
"484 675 OFFCURVE",
"484 652 CURVE SMOOTH",
"484 610 LINE",
"560 610 LINE"
);
},
{
closed = 1;
nodes = (
"106 610 LINE",
"106 652 LINE SMOOTH",
"106 675 OFFCURVE",
"119 694 OFFCURVE",
"136 694 CURVE",
"136 714 LINE",
"30 714 LINE",
"30 610 LINE"
);
}
);
width = 590;
}
);
unicode = 0054;
},
{
glyphname = U;
lastChange = "2021-06-22 17:27:05 +0000";
layers = (
{
background = {
paths = (
{
closed = 1;
nodes = (
"30 700 LINE",
"66 700 LINE SMOOTH",
"81 700 OFFCURVE",
"94 690 OFFCURVE",
"98 676 CURVE SMOOTH",
"294 0 LINE",
"386 0 LINE",
"582 676 LINE SMOOTH",
"586 690 OFFCURVE",
"599 700 OFFCURVE",
"614 700 CURVE SMOOTH",
"650 700 LINE",
"650 750 LINE",
"439 750 LINE",
"439 700 LINE",
"481 700 LINE SMOOTH",
"493 700 OFFCURVE",
"503 690 OFFCURVE",
"499 677 CURVE SMOOTH",
"345 144 LINE",
"335 144 LINE",
"181 677 LINE SMOOTH",
"177 690 OFFCURVE",
"187 700 OFFCURVE",
"199 700 CURVE SMOOTH",
"241 700 LINE",
"241 750 LINE",
"30 750 LINE"
);
}
);
};
layerId = "A004749E-6E0D-4C42-B0DF-5F4E70329EE4";
paths = (
{
closed = 1;
nodes = (
"110 680 LINE",
"110 750 LINE",
"30 750 LINE",
"30 700 LINE",
"60 700 LINE SMOOTH",
"77 700 OFFCURVE",
"90 691 OFFCURVE",
"90 680 CURVE"
);
},
{
closed = 1;
nodes = (
"174 680 LINE",
"174 691 OFFCURVE",
"187 700 OFFCURVE",
"204 700 CURVE SMOOTH",
"234 700 LINE",
"234 750 LINE",
"154 750 LINE",
"154 680 LINE"
);
},
{
closed = 1;
nodes = (
"506 680 LINE",
"506 750 LINE",
"426 750 LINE",
"426 700 LINE",
"456 700 LINE SMOOTH",
"473 700 OFFCURVE",
"486 691 OFFCURVE",
"486 680 CURVE"
);
},
{
closed = 1;
nodes = (
"570 680 LINE",
"570 691 OFFCURVE",
"583 700 OFFCURVE",
"600 700 CURVE SMOOTH",
"630 700 LINE",
"630 750 LINE",
"550 750 LINE",
"550 680 LINE"
);
},
{
closed = 1;
nodes = (
"90 72 OFFCURVE",
"174 -15 OFFCURVE",
"330 -15 CURVE SMOOTH",
"486 -15 OFFCURVE",
"570 72 OFFCURVE",
"570 235 CURVE SMOOTH",
"570 750 LINE",
"486 750 LINE",
"486 245 LINE SMOOTH",
"486 126 OFFCURVE",
"431 59 OFFCURVE",
"330 59 CURVE SMOOTH",
"229 59 OFFCURVE",
"174 126 OFFCURVE",
"174 245 CURVE SMOOTH",
"174 750 LINE",
"90 750 LINE",
"90 235 LINE SMOOTH"
);
}
);
width = 660;
}
);
unicode = 0055;
},
{
glyphname = V;
lastChange = "2021-06-22 17:07:31 +0000";
layers = (
{
layerId = "A004749E-6E0D-4C42-B0DF-5F4E70329EE4";
paths = (
{
closed = 1;
nodes = (
"30 700 LINE",
"66 700 LINE SMOOTH",
"81 700 OFFCURVE",
"94 690 OFFCURVE",
"98 676 CURVE SMOOTH",
"294 0 LINE",
"386 0 LINE",
"582 676 LINE SMOOTH",
"586 690 OFFCURVE",
"599 700 OFFCURVE",
"614 700 CURVE SMOOTH",
"650 700 LINE",
"650 750 LINE",
"439 750 LINE",
"439 700 LINE",
"481 700 LINE SMOOTH",
"493 700 OFFCURVE",
"503 690 OFFCURVE",
"499 677 CURVE SMOOTH",
"345 144 LINE",
"335 144 LINE",
"181 677 LINE SMOOTH",
"177 690 OFFCURVE",
"187 700 OFFCURVE",
"199 700 CURVE SMOOTH",
"241 700 LINE",
"241 750 LINE",
"30 750 LINE"
);
}
);
width = 680;
}
);
unicode = 0056;
},
{
glyphname = W;
lastChange = "2021-06-22 20:08:22 +0000";
layers = (
{
layerId = "A004749E-6E0D-4C42-B0DF-5F4E70329EE4";
paths = (
{
closed = 1;
nodes = (
"66 700 LINE SMOOTH",
"81 700 OFFCURVE",
"94 690 OFFCURVE",
"98 676 CURVE SMOOTH",
"294 0 LINE",
"384 0 LINE",
"506 401 LINE",
"516 401 LINE",
"624 0 LINE",
"716 0 LINE",
"912 676 LINE SMOOTH",
"916 690 OFFCURVE",
"929 700 OFFCURVE",
"944 700 CURVE SMOOTH",
"980 700 LINE",
"980 750 LINE",
"769 750 LINE",
"769 700 LINE",
"811 700 LINE SMOOTH",
"823 700 OFFCURVE",
"833 690 OFFCURVE",
"829 677 CURVE SMOOTH",
"675 144 LINE",
"665 144 LINE",
"521 677 LINE SMOOTH",
"517 690 OFFCURVE",
"527 700 OFFCURVE",
"539 700 CURVE SMOOTH",
"581 700 LINE",
"581 750 LINE",
"370 750 LINE",
"370 700 LINE",
"406 700 LINE SMOOTH",
"421 700 OFFCURVE",
"434 690 OFFCURVE",
"438 676 CURVE SMOOTH",
"472 551 LINE",
"345 144 LINE",
"335 144 LINE",
"181 677 LINE SMOOTH",
"177 690 OFFCURVE",
"187 700 OFFCURVE",
"199 700 CURVE SMOOTH",
"241 700 LINE",
"241 750 LINE",
"30 750 LINE",
"30 700 LINE"
);
}
);
width = 1010;
}
);
unicode = 0057;
},
{
glyphname = X;
lastChange = "2021-06-22 17:46:44 +0000";
layers = (
{
background = {
paths = (
{
closed = 1;
nodes = (
"525 -15 OFFCURVE",
"630 122 OFFCURVE",
"630 376 CURVE SMOOTH",
"630 629 OFFCURVE",
"525 765 OFFCURVE",
"331 765 CURVE SMOOTH",
"135 765 OFFCURVE",
"30 629 OFFCURVE",
"30 376 CURVE SMOOTH",
"30 122 OFFCURVE",
"135 -15 OFFCURVE",
"331 -15 CURVE SMOOTH"
);
},
{
closed = 1;
nodes = (
"200 41 OFFCURVE",
"130 158 OFFCURVE",
"130 376 CURVE SMOOTH",
"130 592 OFFCURVE",
"200 709 OFFCURVE",
"331 709 CURVE SMOOTH",
"460 709 OFFCURVE",
"530 592 OFFCURVE",
"530 376 CURVE SMOOTH",
"530 158 OFFCURVE",
"460 41 OFFCURVE",
"331 41 CURVE SMOOTH"
);
}
);
};
layerId = "A004749E-6E0D-4C42-B0DF-5F4E70329EE4";
paths = (
{
closed = 1;
nodes = (
"374 351 LINE",
"563 684 LINE SMOOTH",
"569 695 OFFCURVE",
"580 700 OFFCURVE",
"591 700 CURVE SMOOTH",
"630 700 LINE",
"630 750 LINE",
"419 750 LINE",
"419 700 LINE",
"472 700 LINE",
"324 436 LINE"
);
},
{
closed = 1;
nodes = (
"241 0 LINE",
"241 50 LINE",
"188 50 LINE",
"336 314 LINE",
"286 399 LINE",
"97 66 LINE SMOOTH",
"91 55 OFFCURVE",
"80 50 OFFCURVE",
"69 50 CURVE SMOOTH",
"30 50 LINE",
"30 0 LINE"
);
},
{
closed = 1;
nodes = (
"71 700 LINE SMOOTH",
"82 700 OFFCURVE",
"92 694 OFFCURVE",
"98 684 CURVE SMOOTH",
"471 50 LINE",
"419 50 LINE",
"419 0 LINE",
"630 0 LINE",
"630 50 LINE",
"589 50 LINE SMOOTH",
"578 50 OFFCURVE",
"568 56 OFFCURVE",
"562 66 CURVE SMOOTH",
"189 700 LINE",
"241 700 LINE",
"241 750 LINE",
"30 750 LINE",
"30 700 LINE"
);
}
);
width = 660;
}
);
unicode = 0058;
},
{
glyphname = Y;
lastChange = "2021-06-22 20:24:48 +0000";
layers = (
{
background = {
paths = (
{
closed = 1;
nodes = (
"30 700 LINE",
"66 700 LINE SMOOTH",
"81 700 OFFCURVE",
"94 690 OFFCURVE",
"98 676 CURVE SMOOTH",
"294 0 LINE",
"386 0 LINE",
"582 676 LINE SMOOTH",
"586 690 OFFCURVE",
"599 700 OFFCURVE",
"614 700 CURVE SMOOTH",
"650 700 LINE",
"650 750 LINE",
"439 750 LINE",
"439 700 LINE",
"481 700 LINE SMOOTH",
"493 700 OFFCURVE",
"503 690 OFFCURVE",
"499 677 CURVE SMOOTH",
"345 144 LINE",
"335 144 LINE",
"181 677 LINE SMOOTH",
"177 690 OFFCURVE",
"187 700 OFFCURVE",
"199 700 CURVE SMOOTH",
"241 700 LINE",
"241 750 LINE",
"30 750 LINE"
);
}
);
};
guideLines = (
{
position = "{399, 340}";
}
);
layerId = "A004749E-6E0D-4C42-B0DF-5F4E70329EE4";
paths = (
{
closed = 1;
nodes = (
"71 700 LINE SMOOTH",
"82 700 OFFCURVE",
"92 694 OFFCURVE",
"98 684 CURVE SMOOTH",
"294 347 LINE SMOOTH",
"296 343 OFFCURVE",
"298 337 OFFCURVE",
"298 332 CURVE SMOOTH",
"298 70 LINE SMOOTH",
"298 59 OFFCURVE",
"285 50 OFFCURVE",
"268 50 CURVE SMOOTH",
"218 50 LINE",
"218 0 LINE",
"462 0 LINE",
"462 50 LINE",
"412 50 LINE SMOOTH",
"395 50 OFFCURVE",
"382 59 OFFCURVE",
"382 70 CURVE SMOOTH",
"382 332 LINE SMOOTH",
"382 337 OFFCURVE",
"384 343 OFFCURVE",
"386 347 CURVE SMOOTH",
"582 684 LINE SMOOTH",
"588 694 OFFCURVE",
"598 700 OFFCURVE",
"609 700 CURVE SMOOTH",
"650 700 LINE",
"650 750 LINE",
"439 750 LINE",
"439 700 LINE",
"469 700 LINE SMOOTH",
"481 700 OFFCURVE",
"488 688 OFFCURVE",
"482 677 CURVE",
"340 440 LINE",
"198 677 LINE",
"192 688 OFFCURVE",
"199 700 OFFCURVE",
"211 700 CURVE SMOOTH",
"241 700 LINE",
"241 750 LINE",
"30 750 LINE",
"30 700 LINE"
);
}
);
width = 680;
}
);
unicode = 0059;
},
{
glyphname = Z;
lastChange = "2021-06-23 09:24:54 +0000";
layers = (
{
background = {
paths = (
{
closed = 1;
nodes = (
"540 0 LINE",
"540 50 LINE",
"510 50 LINE SMOOTH",
"493 50 OFFCURVE",
"480 59 OFFCURVE",
"480 70 CURVE SMOOTH",
"480 680 LINE SMOOTH",
"480 691 OFFCURVE",
"493 700 OFFCURVE",
"510 700 CURVE SMOOTH",
"540 700 LINE",
"540 750 LINE",
"60 750 LINE",
"60 610 LINE",
"136 610 LINE",
"136 652 LINE SMOOTH",
"136 675 OFFCURVE",
"149 694 OFFCURVE",
"166 694 CURVE SMOOTH",
"396 694 LINE",
"396 431 LINE",
"280 431 LINE SMOOTH",
"269 431 OFFCURVE",
"260 442 OFFCURVE",
"260 456 CURVE SMOOTH",
"260 481 LINE",
"210 481 LINE",
"210 335 LINE",
"260 335 LINE",
"260 355 LINE SMOOTH",
"260 366 OFFCURVE",
"269 375 OFFCURVE",
"280 375 CURVE SMOOTH",
"396 375 LINE",
"396 56 LINE",
"166 56 LINE SMOOTH",
"149 56 OFFCURVE",
"136 76 OFFCURVE",
"136 101 CURVE SMOOTH",
"136 146 LINE",
"60 146 LINE",
"60 0 LINE"
);
}
);
};
layerId = "A004749E-6E0D-4C42-B0DF-5F4E70329EE4";
paths = (
{
closed = 1;
nodes = (
"431 750 LINE",
"30 20 LINE",
"119 0 LINE",
"520 750 LINE"
);
},
{
closed = 1;
nodes = (
"95 56 LINE",
"95 20 LINE",
"30 20 LINE",
"30 0 LINE",
"530 0 LINE",
"530 56 LINE"
);
},
{
closed = 1;
nodes = (
"70 750 LINE",
"70 694 LINE",
"450 694 LINE",
"520 750 LINE"
);
},
{
closed = 1;
nodes = (
"454 146 LINE",
"454 101 LINE SMOOTH",
"454 76 OFFCURVE",
"441 56 OFFCURVE",
"424 56 CURVE",
"424 36 LINE",
"530 36 LINE",
"530 146 LINE"
);
},
{
closed = 1;
nodes = (
"146 610 LINE",
"146 652 LINE SMOOTH",
"146 675 OFFCURVE",
"159 694 OFFCURVE",
"176 694 CURVE",
"176 714 LINE",
"70 714 LINE",
"70 610 LINE"
);
}
);
width = 560;
}
);
unicode = 005A;
},
